<svg width="779" height="442" viewBox="0 0 779 442" fill="none" xmlns="http://www.w3.org/2000/svg">
<path d="M153.614 130.598H106.097V67.3183H143.432L153.614 77.2583V130.598Z" fill="white" stroke="#263238" stroke-linecap="round" stroke-linejoin="round"/>
<path d="M144.704 76.2183V78.8061L153.614 77.2704L144.704 76.2183Z" fill="#263238" stroke="#263238" stroke-linecap="round" stroke-linejoin="round"/>
<path d="M143.432 67.3183V77.2704H153.614L143.432 67.3183Z" fill="white" stroke="#263238" stroke-linecap="round" stroke-linejoin="round"/>
<path d="M112.126 81.0674H148.711" stroke="#263238" stroke-linecap="round" stroke-linejoin="round"/>
<path d="M112.126 90.1125H148.711" stroke="#263238" stroke-linecap="round" stroke-linejoin="round"/>
<path d="M112.126 99.1455H148.711" stroke="#263238" stroke-linecap="round" stroke-linejoin="round"/>
<path d="M112.126 108.191H148.711" stroke="#263238" stroke-linecap="round" stroke-linejoin="round"/>
<path d="M112.126 117.224H148.711" stroke="#263238" stroke-linecap="round" stroke-linejoin="round"/>
<path d="M19.4181 207.07H36.4513" stroke="#263238" stroke-linecap="round" stroke-linejoin="round"/>
<path d="M0.605316 207.07H16.3553" stroke="#263238" stroke-linecap="round" stroke-linejoin="round"/>
<path d="M29.8535 212.439H36.4513" stroke="#263238" stroke-linecap="round" stroke-linejoin="round"/>
<path d="M0.605316 212.439H26.7907" stroke="#263238" stroke-linecap="round" stroke-linejoin="round"/>
<path d="M33.8485 217.808H36.4513" stroke="#263238" stroke-linecap="round" stroke-linejoin="round"/>
<path d="M19.7329 217.808H29.5509" stroke="#263238" stroke-linecap="round" stroke-linejoin="round"/>
<path d="M0.605316 217.808H16.9727" stroke="#263238" stroke-linecap="round" stroke-linejoin="round"/>
<path d="M0.605316 223.177H36.4513" stroke="#263238" stroke-linecap="round" stroke-linejoin="round"/>
<path d="M30.4709 228.546H36.4513" stroke="#263238" stroke-linecap="round" stroke-linejoin="round"/>
<path d="M9.90277 228.546H24.3332" stroke="#263238" stroke-linecap="round" stroke-linejoin="round"/>
<path d="M0.605316 228.546H5.60511" stroke="#263238" stroke-linecap="round" stroke-linejoin="round"/>
<path d="M16.9727 233.915H36.4513" stroke="#263238" stroke-linecap="round" stroke-linejoin="round"/>
<path d="M0.605316 233.915H13.5951" stroke="#263238" stroke-linecap="round" stroke-linejoin="round"/>
<path d="M26.7907 239.284H36.4513" stroke="#263238" stroke-linecap="round" stroke-linejoin="round"/>
<path d="M17.2753 239.284H24.0305" stroke="#263238" stroke-linecap="round" stroke-linejoin="round"/>
<path d="M0.605316 239.284H13.5951" stroke="#263238" stroke-linecap="round" stroke-linejoin="round"/>
<path d="M128.53 279.237H89.3427V227.047H120.14L128.53 235.233V279.237Z" fill="#F6E8EA" stroke="#263238" stroke-linecap="round" stroke-linejoin="round"/>
<path d="M121.194 234.387V236.515L128.53 235.245L121.194 234.387Z" fill="#263238" stroke="#263238" stroke-linecap="round" stroke-linejoin="round"/>
<path d="M120.14 227.047V235.245H128.53L120.14 227.047Z" fill="white" stroke="#263238" stroke-linecap="round" stroke-linejoin="round"/>
<path d="M94.3182 238.377H124.487" stroke="#263238" stroke-linecap="round" stroke-linejoin="round"/>
<path d="M94.3182 245.838H124.487" stroke="#263238" stroke-linecap="round" stroke-linejoin="round"/>
<path d="M94.3182 253.299H124.487" stroke="#263238" stroke-linecap="round" stroke-linejoin="round"/>
<path d="M94.3182 260.748H124.487" stroke="#263238" stroke-linecap="round" stroke-linejoin="round"/>
<path d="M94.3182 268.209H124.487" stroke="#263238" stroke-linecap="round" stroke-linejoin="round"/>
<path d="M87.333 136.45H39.8168V73.171H77.1519L87.333 83.0989V136.45Z" fill="#F6E8EA" stroke="#263238" stroke-linecap="round" stroke-linejoin="round"/>
<path d="M78.4351 82.071V84.6588L87.3331 83.111L78.4351 82.071Z" fill="#263238" stroke="#263238" stroke-linecap="round" stroke-linejoin="round"/>
<path d="M77.1519 73.171V83.111H87.333L77.1519 73.171Z" fill="white" stroke="#263238" stroke-linecap="round" stroke-linejoin="round"/>
<path d="M45.8577 86.9201H82.4301" stroke="#263238" stroke-linecap="round" stroke-linejoin="round"/>
<path d="M45.8577 95.9531H82.4301" stroke="#263238" stroke-linecap="round" stroke-linejoin="round"/>
<path d="M45.8577 104.998H82.4301" stroke="#263238" stroke-linecap="round" stroke-linejoin="round"/>
<path d="M45.8577 114.043H82.4301" stroke="#263238" stroke-linecap="round" stroke-linejoin="round"/>
<path d="M45.8577 123.076H82.4301" stroke="#263238" stroke-linecap="round" stroke-linejoin="round"/>
<path d="M189.109 165.4H141.592V102.108H178.927L189.109 112.048V165.4Z" fill="#F6E8EA" stroke="#263238" stroke-linecap="round" stroke-linejoin="round"/>
<path d="M180.199 111.008V113.608L189.109 112.06L180.199 111.008Z" fill="#263238" stroke="#263238" stroke-linecap="round" stroke-linejoin="round"/>
<path d="M178.927 102.108V112.06H189.109L178.927 102.108Z" fill="white" stroke="#263238" stroke-linecap="round" stroke-linejoin="round"/>
<path d="M147.621 115.869H184.206" stroke="#263238" stroke-linecap="round" stroke-linejoin="round"/>
<path d="M147.621 124.902H184.206" stroke="#263238" stroke-linecap="round" stroke-linejoin="round"/>
<path d="M147.621 133.947H184.206" stroke="#263238" stroke-linecap="round" stroke-linejoin="round"/>
<path d="M147.621 142.98H184.206" stroke="#263238" stroke-linecap="round" stroke-linejoin="round"/>
<path d="M147.621 152.025H184.206" stroke="#263238" stroke-linecap="round" stroke-linejoin="round"/>
<path d="M252.859 235.536H205.331V172.244H242.666L252.859 182.184V235.536Z" fill="white" stroke="#263238" stroke-linecap="round" stroke-linejoin="round"/>
<path d="M243.949 181.144V183.744L252.859 182.196L243.949 181.144Z" fill="#263238" stroke="#263238" stroke-linecap="round" stroke-linejoin="round"/>
<path d="M242.666 172.244V182.196H252.859L242.666 172.244Z" fill="white" stroke="#263238" stroke-linecap="round" stroke-linejoin="round"/>
<path d="M211.372 186.005H247.956" stroke="#263238" stroke-linecap="round" stroke-linejoin="round"/>
<path d="M211.372 195.038H247.956" stroke="#263238" stroke-linecap="round" stroke-linejoin="round"/>
<path d="M211.372 204.083H247.956" stroke="#263238" stroke-linecap="round" stroke-linejoin="round"/>
<path d="M211.372 213.116H247.956" stroke="#263238" stroke-linecap="round" stroke-linejoin="round"/>
<path d="M211.372 222.161H247.956" stroke="#263238" stroke-linecap="round" stroke-linejoin="round"/>
<path d="M120.249 120.126H67.9634C62.2067 120.126 57.5401 124.787 57.5401 130.537V192.62C57.5401 198.37 62.2067 203.031 67.9634 203.031H120.249C126.006 203.031 130.673 198.37 130.673 192.62V130.537C130.673 124.787 126.006 120.126 120.249 120.126Z" fill="white" stroke="#263238" stroke-linecap="round" stroke-linejoin="round"/>
<path d="M122.537 120.126H65.639C63.4846 120.126 61.4184 120.981 59.8951 122.502C58.3717 124.024 57.5158 126.088 57.5158 128.24V129.981H130.648V128.24C130.645 126.091 129.79 124.031 128.27 122.51C126.75 120.989 124.689 120.132 122.537 120.126Z" fill="#263238" stroke="#263238" stroke-linecap="round" stroke-linejoin="round"/>
<path d="M67.9876 144.48H120.225" stroke="#263238" stroke-linecap="round" stroke-linejoin="round"/>
<path d="M67.9876 157.225H120.225" stroke="#263238" stroke-linecap="round" stroke-linejoin="round"/>
<path d="M67.9876 169.983H120.225" stroke="#263238" stroke-linecap="round" stroke-linejoin="round"/>
<path d="M67.9876 182.74H120.225" stroke="#263238" stroke-linecap="round" stroke-linejoin="round"/>
<path d="M112.041 124.769C112.041 124.31 111.905 123.86 111.649 123.478C111.393 123.096 111.029 122.798 110.604 122.623C110.178 122.448 109.71 122.402 109.259 122.493C108.808 122.584 108.394 122.806 108.069 123.132C107.745 123.458 107.524 123.873 107.436 124.324C107.348 124.775 107.395 125.242 107.573 125.666C107.751 126.09 108.051 126.452 108.435 126.706C108.818 126.959 109.269 127.093 109.729 127.091C110.034 127.091 110.336 127.031 110.617 126.914C110.898 126.797 111.154 126.626 111.369 126.41C111.583 126.194 111.753 125.938 111.869 125.657C111.984 125.375 112.043 125.074 112.041 124.769Z" fill="white"/>
<path d="M119.693 124.769C119.692 124.308 119.554 123.856 119.296 123.473C119.038 123.09 118.671 122.793 118.243 122.619C117.815 122.445 117.344 122.403 116.892 122.498C116.44 122.592 116.026 122.819 115.703 123.15C115.381 123.481 115.164 123.9 115.081 124.355C114.999 124.809 115.053 125.277 115.239 125.7C115.424 126.123 115.731 126.482 116.121 126.729C116.511 126.977 116.967 127.103 117.429 127.091C118.035 127.075 118.61 126.824 119.033 126.39C119.456 125.956 119.693 125.375 119.693 124.769Z" fill="white"/>
<path d="M127.344 124.769C127.344 124.31 127.207 123.861 126.952 123.479C126.696 123.098 126.333 122.8 125.909 122.624C125.484 122.449 125.017 122.403 124.566 122.492C124.115 122.582 123.701 122.803 123.376 123.128C123.051 123.452 122.829 123.866 122.739 124.316C122.65 124.767 122.696 125.233 122.872 125.658C123.048 126.082 123.346 126.445 123.728 126.7C124.11 126.955 124.559 127.091 125.019 127.091C125.636 127.091 126.227 126.846 126.663 126.411C127.099 125.976 127.344 125.385 127.344 124.769Z" fill="white"/>
<path d="M70.1304 188.012H40.2647C34.5081 188.012 29.8414 192.674 29.8414 198.424V235.088C29.8414 240.838 34.5081 245.5 40.2647 245.5H70.1304C75.887 245.5 80.5537 240.838 80.5537 235.088V198.424C80.5537 192.674 75.887 188.012 70.1304 188.012Z" fill="white" stroke="#263238" stroke-linecap="round" stroke-linejoin="round"/>
<path d="M74.9244 188.012H35.4707C33.9778 188.012 32.5459 188.605 31.4902 189.659C30.4345 190.714 29.8414 192.144 29.8414 193.635V194.845H80.5537V193.635C80.5537 192.144 79.9606 190.714 78.9049 189.659C77.8492 188.605 76.4173 188.012 74.9244 188.012Z" fill="#263238" stroke="#263238" stroke-linecap="round" stroke-linejoin="round"/>
<path d="M37.0808 204.893H73.3142" stroke="#263238" stroke-linecap="round" stroke-linejoin="round"/>
<path d="M37.0808 213.733H73.3142" stroke="#263238" stroke-linecap="round" stroke-linejoin="round"/>
<path d="M37.0808 222.585H73.3142" stroke="#263238" stroke-linecap="round" stroke-linejoin="round"/>
<path d="M37.0808 231.424H73.3142" stroke="#263238" stroke-linecap="round" stroke-linejoin="round"/>
<path d="M66.0264 192.825C66.9156 192.825 67.6365 192.105 67.6365 191.217C67.6365 190.329 66.9156 189.609 66.0264 189.609C65.1372 189.609 64.4163 190.329 64.4163 191.217C64.4163 192.105 65.1372 192.825 66.0264 192.825Z" fill="white"/>
<path d="M71.3289 192.825C72.2181 192.825 72.939 192.105 72.939 191.217C72.939 190.329 72.2181 189.609 71.3289 189.609C70.4396 189.609 69.7188 190.329 69.7188 191.217C69.7188 192.105 70.4396 192.825 71.3289 192.825Z" fill="white"/>
<path d="M78.2414 191.217C78.2414 190.899 78.147 190.588 77.9701 190.323C77.7931 190.059 77.5417 189.853 77.2475 189.731C76.9533 189.609 76.6295 189.577 76.3172 189.64C76.0049 189.702 75.718 189.855 75.4928 190.08C75.2676 190.305 75.1143 190.591 75.0521 190.903C74.99 191.215 75.0219 191.539 75.1438 191.832C75.2656 192.126 75.472 192.377 75.7368 192.554C76.0016 192.731 76.3129 192.825 76.6313 192.825C76.8432 192.827 77.0533 192.786 77.2494 192.706C77.4455 192.626 77.6236 192.507 77.7734 192.358C77.9233 192.208 78.0418 192.03 78.1221 191.834C78.2025 191.638 78.243 191.429 78.2414 191.217Z" fill="white"/>
<path d="M54.9252 262.804H71.9463" stroke="#263238" stroke-linecap="round" stroke-linejoin="round"/>
<path d="M36.1124 262.804H51.8623" stroke="#263238" stroke-linecap="round" stroke-linejoin="round"/>
<path d="M65.3606 268.173H71.9463" stroke="#263238" stroke-linecap="round" stroke-linejoin="round"/>
<path d="M36.1124 268.173H62.2977" stroke="#263238" stroke-linecap="round" stroke-linejoin="round"/>
<path d="M69.3556 273.542H71.9463" stroke="#263238" stroke-linecap="round" stroke-linejoin="round"/>
<path d="M55.2399 273.542H65.0579" stroke="#263238" stroke-linecap="round" stroke-linejoin="round"/>
<path d="M36.1124 273.542H52.4676" stroke="#263238" stroke-linecap="round" stroke-linejoin="round"/>
<path d="M36.1124 278.911H71.9463" stroke="#263238" stroke-linecap="round" stroke-linejoin="round"/>
<path d="M65.978 284.28H71.9462" stroke="#263238" stroke-linecap="round" stroke-linejoin="round"/>
<path d="M45.4098 284.28H59.8402" stroke="#263238" stroke-linecap="round" stroke-linejoin="round"/>
<path d="M36.1124 284.28H41.1122" stroke="#263238" stroke-linecap="round" stroke-linejoin="round"/>
<path d="M52.4676 289.649H71.9463" stroke="#263238" stroke-linecap="round" stroke-linejoin="round"/>
<path d="M36.1124 289.649H49.09" stroke="#263238" stroke-linecap="round" stroke-linejoin="round"/>
<path d="M62.2977 295.018H71.9463" stroke="#263238" stroke-linecap="round" stroke-linejoin="round"/>
<path d="M52.7824 295.018H59.5376" stroke="#263238" stroke-linecap="round" stroke-linejoin="round"/>
<path d="M36.1124 295.018H49.09" stroke="#263238" stroke-linecap="round" stroke-linejoin="round"/>
<path d="M175.259 255.585H192.28" stroke="#263238" stroke-linecap="round" stroke-linejoin="round"/>
<path d="M156.434 255.585H172.184" stroke="#263238" stroke-linecap="round" stroke-linejoin="round"/>
<path d="M185.695 260.966H192.28" stroke="#263238" stroke-linecap="round" stroke-linejoin="round"/>
<path d="M156.434 260.966H182.62" stroke="#263238" stroke-linecap="round" stroke-linejoin="round"/>
<path d="M189.69 266.335H192.28" stroke="#263238" stroke-linecap="round" stroke-linejoin="round"/>
<path d="M175.562 266.335H185.392" stroke="#263238" stroke-linecap="round" stroke-linejoin="round"/>
<path d="M156.434 266.335H172.802" stroke="#263238" stroke-linecap="round" stroke-linejoin="round"/>
<path d="M156.434 271.704H192.28" stroke="#263238" stroke-linecap="round" stroke-linejoin="round"/>
<path d="M186.312 277.073H192.28" stroke="#263238" stroke-linecap="round" stroke-linejoin="round"/>
<path d="M165.744 277.073H180.174" stroke="#263238" stroke-linecap="round" stroke-linejoin="round"/>
<path d="M156.434 277.073H161.446" stroke="#263238" stroke-linecap="round" stroke-linejoin="round"/>
<path d="M172.802 282.442H192.28" stroke="#263238" stroke-linecap="round" stroke-linejoin="round"/>
<path d="M156.434 282.442H169.424" stroke="#263238" stroke-linecap="round" stroke-linejoin="round"/>
<path d="M182.62 287.811H192.28" stroke="#263238" stroke-linecap="round" stroke-linejoin="round"/>
<path d="M173.104 287.811H179.86" stroke="#263238" stroke-linecap="round" stroke-linejoin="round"/>
<path d="M156.434 287.811H169.424" stroke="#263238" stroke-linecap="round" stroke-linejoin="round"/>
<path d="M215.076 133.79H232.097" stroke="#263238" stroke-linecap="round" stroke-linejoin="round"/>
<path d="M196.263 133.79H212.013" stroke="#263238" stroke-linecap="round" stroke-linejoin="round"/>
<path d="M225.511 139.159H232.097" stroke="#263238" stroke-linecap="round" stroke-linejoin="round"/>
<path d="M196.263 139.159H222.449" stroke="#263238" stroke-linecap="round" stroke-linejoin="round"/>
<path d="M229.506 144.528H232.097" stroke="#263238" stroke-linecap="round" stroke-linejoin="round"/>
<path d="M215.391 144.528H225.209" stroke="#263238" stroke-linecap="round" stroke-linejoin="round"/>
<path d="M196.263 144.528H212.619" stroke="#263238" stroke-linecap="round" stroke-linejoin="round"/>
<path d="M196.263 149.897H232.097" stroke="#263238" stroke-linecap="round" stroke-linejoin="round"/>
<path d="M226.129 155.266H232.097" stroke="#263238" stroke-linecap="round" stroke-linejoin="round"/>
<path d="M205.561 155.266H219.991" stroke="#263238" stroke-linecap="round" stroke-linejoin="round"/>
<path d="M196.263 155.266H201.263" stroke="#263238" stroke-linecap="round" stroke-linejoin="round"/>
<path d="M212.619 160.635H232.097" stroke="#263238" stroke-linecap="round" stroke-linejoin="round"/>
<path d="M196.263 160.635H209.241" stroke="#263238" stroke-linecap="round" stroke-linejoin="round"/>
<path d="M222.449 166.004H232.097" stroke="#263238" stroke-linecap="round" stroke-linejoin="round"/>
<path d="M212.933 166.004H219.688" stroke="#263238" stroke-linecap="round" stroke-linejoin="round"/>
<path d="M196.263 166.004H209.241" stroke="#263238" stroke-linecap="round" stroke-linejoin="round"/>
<path d="M28.3282 145.919H45.3614" stroke="#263238" stroke-linecap="round" stroke-linejoin="round"/>
<path d="M9.51538 145.919H25.2654" stroke="#263238" stroke-linecap="round" stroke-linejoin="round"/>
<path d="M38.7636 151.288H45.3614" stroke="#263238" stroke-linecap="round" stroke-linejoin="round"/>
<path d="M9.51538 151.288H35.7008" stroke="#263238" stroke-linecap="round" stroke-linejoin="round"/>
<path d="M42.7586 156.657H45.3614" stroke="#263238" stroke-linecap="round" stroke-linejoin="round"/>
<path d="M28.6429 156.657H38.4609" stroke="#263238" stroke-linecap="round" stroke-linejoin="round"/>
<path d="M9.51538 156.657H25.8707" stroke="#263238" stroke-linecap="round" stroke-linejoin="round"/>
<path d="M9.51538 162.026H45.3614" stroke="#263238" stroke-linecap="round" stroke-linejoin="round"/>
<path d="M39.381 167.395H45.3614" stroke="#263238" stroke-linecap="round" stroke-linejoin="round"/>
<path d="M18.8128 167.395H33.2432" stroke="#263238" stroke-linecap="round" stroke-linejoin="round"/>
<path d="M9.51538 167.395H14.5152" stroke="#263238" stroke-linecap="round" stroke-linejoin="round"/>
<path d="M25.8706 172.764H45.3614" stroke="#263238" stroke-linecap="round" stroke-linejoin="round"/>
<path d="M9.51538 172.764H22.5052" stroke="#263238" stroke-linecap="round" stroke-linejoin="round"/>
<path d="M35.7007 178.133H45.3614" stroke="#263238" stroke-linecap="round" stroke-linejoin="round"/>
<path d="M26.1854 178.133H32.9406" stroke="#263238" stroke-linecap="round" stroke-linejoin="round"/>
<path d="M9.51538 178.133H22.5052" stroke="#263238" stroke-linecap="round" stroke-linejoin="round"/>
<path d="M134.777 188.46V241.811H182.293V178.532H144.97L134.777 188.46Z" fill="white" stroke="#263238" stroke-linecap="round" stroke-linejoin="round"/>
<path d="M143.687 187.432V190.02L134.789 188.484L143.687 187.432Z" fill="#263238" stroke="#263238" stroke-linecap="round" stroke-linejoin="round"/>
<path d="M144.97 178.532V188.484H134.789L144.97 178.532Z" fill="white" stroke="#263238" stroke-linecap="round" stroke-linejoin="round"/>
<path d="M176.264 192.281H139.692" stroke="#263238" stroke-linecap="round" stroke-linejoin="round"/>
<path d="M176.264 201.314H139.692" stroke="#263238" stroke-linecap="round" stroke-linejoin="round"/>
<path d="M176.264 210.359H139.692" stroke="#263238" stroke-linecap="round" stroke-linejoin="round"/>
<path d="M176.264 219.404H139.692" stroke="#263238" stroke-linecap="round" stroke-linejoin="round"/>
<path d="M182.305 227.047H134.789V241.824H182.305V227.047Z" fill="#263238" stroke="#263238" stroke-linecap="round" stroke-linejoin="round"/>
<path d="M189.641 192.608H156.761V208.424H189.641V192.608Z" fill="#263238" stroke="#263238" stroke-linecap="round" stroke-linejoin="round"/>
<path d="M170.259 194.845C171.93 194.845 172.681 195.836 172.681 197.445V198.726C172.681 200.407 171.894 201.29 170.199 201.29H169.146V205.498H167.935V194.845H170.259ZM170.163 200.226C171.046 200.226 171.47 199.815 171.47 198.799V197.384C171.47 196.417 171.119 195.921 170.259 195.921H169.109V200.226H170.163Z" fill="white"/>
<path d="M176.119 194.845C177.777 194.845 178.54 195.848 178.54 197.493V202.862C178.54 204.494 177.777 205.498 176.119 205.498H173.613V194.845H176.119ZM176.119 204.41C176.978 204.41 177.329 203.878 177.329 202.91V197.432C177.329 196.453 176.918 195.921 176.046 195.921H174.836V204.386L176.119 204.41Z" fill="white"/>
<path d="M183.286 199.803V200.879H180.864V205.498H179.654V194.845H183.891V195.897H180.84V199.778L183.286 199.803Z" fill="white"/>
<path opacity="0.2" d="M751.301 237.857L742.912 237.652L742.791 242.416C740.73 242.632 738.699 243.078 736.738 243.746L734.341 239.429L726.968 243.444L729.256 247.616C727.565 248.845 726.018 250.261 724.644 251.836L720.443 249.26L716.061 256.359L720.128 258.838C719.272 260.753 718.642 262.762 718.252 264.823L713.325 264.69L713.107 273.07L717.877 273.191C718.092 275.25 718.539 277.278 719.208 279.237L714.886 281.583L718.906 288.948L723.094 286.674C724.32 288.36 725.734 289.902 727.307 291.269L724.729 295.477L731.883 299.843L734.377 295.792C736.286 296.637 738.284 297.265 740.333 297.666L740.212 302.588L748.59 302.793L748.711 298.029C750.772 297.813 752.802 297.367 754.764 296.699L757.112 301.016L764.485 297.013L762.209 292.829C763.892 291.595 765.438 290.184 766.821 288.621L771.022 291.185L775.392 284.038L771.337 281.62C772.181 279.708 772.81 277.708 773.213 275.658L778.141 275.791L778.346 267.411L773.577 267.29C773.361 265.231 772.914 263.203 772.245 261.244L776.567 258.898L772.608 251.522L768.419 253.807C767.19 252.121 765.777 250.575 764.206 249.2L766.773 244.992L759.618 240.638L757.136 244.702C755.228 243.851 753.23 243.218 751.18 242.815L751.301 237.857ZM745.248 290.423C741.256 290.324 737.382 289.044 734.118 286.746C730.854 284.448 728.345 281.234 726.909 277.512C725.473 273.789 725.174 269.725 726.05 265.833C726.927 261.941 728.939 258.396 731.832 255.646C734.725 252.896 738.37 251.065 742.305 250.385C746.241 249.704 750.289 250.204 753.94 251.822C757.591 253.44 760.679 256.103 762.815 259.474C764.95 262.845 766.037 266.773 765.938 270.761C765.872 273.409 765.284 276.018 764.209 278.439C763.133 280.86 761.591 283.046 759.67 284.872C757.749 286.698 755.486 288.128 753.012 289.08C750.537 290.033 747.899 290.489 745.248 290.423Z" stroke="#22181C" stroke-linecap="round" stroke-linejoin="round"/>
<path opacity="0.2" d="M727.574 175.267L719.184 175.061L719.063 179.814C717.002 180.039 714.973 180.489 713.01 181.156L710.625 176.839L703.252 180.842L705.541 185.026C703.849 186.25 702.302 187.662 700.928 189.234L696.715 186.67L692.345 193.817L696.413 196.296C695.559 198.201 694.926 200.197 694.524 202.245L689.597 202.124L689.391 210.504L694.161 210.613C694.372 212.692 694.819 214.741 695.493 216.72L691.255 219.066L695.275 226.418L699.463 224.144C700.689 225.834 702.102 227.38 703.676 228.752L701.098 232.948L708.252 237.325L710.673 233.262C712.585 234.111 714.588 234.739 716.642 235.136L716.509 240.058L724.898 240.276L725.019 235.511C727.081 235.292 729.111 234.841 731.072 234.169L733.421 238.486L740.793 234.483L738.517 230.3C740.202 229.072 741.745 227.66 743.118 226.091L747.331 228.655L751.701 221.508L747.645 219.029C748.491 217.122 749.121 215.127 749.522 213.08L754.449 213.201L754.655 204.833L749.885 204.712C749.672 202.653 749.225 200.624 748.553 198.666L752.875 196.308L748.868 188.956L744.679 191.229C743.444 189.548 742.031 188.003 740.467 186.622L743.033 182.426L735.878 178.06L733.457 182.111C731.543 181.268 729.541 180.64 727.489 180.237L727.574 175.267ZM721.521 227.821C717.527 227.721 713.654 226.441 710.389 224.142C707.124 221.844 704.616 218.629 703.18 214.906C701.744 211.183 701.446 207.118 702.324 203.226C703.201 199.334 705.214 195.789 708.109 193.04C711.004 190.29 714.65 188.46 718.585 187.781C722.521 187.102 726.571 187.604 730.221 189.223C733.871 190.843 736.959 193.508 739.093 196.88C741.227 200.253 742.312 204.182 742.21 208.17C742.145 210.818 741.559 213.428 740.484 215.849C739.409 218.27 737.866 220.456 735.945 222.281C734.023 224.106 731.76 225.535 729.285 226.486C726.81 227.436 724.171 227.89 721.521 227.821Z" stroke="#22181C" stroke-linecap="round" stroke-linejoin="round"/>
<path opacity="0.2" d="M319.6 97.2953V88.9153H314.757C314.494 86.8497 313.994 84.8211 313.268 82.8691L317.53 80.4507L313.341 73.1952L309.213 75.6137C307.939 73.9587 306.486 72.45 304.879 71.1153L307.3 66.8588L300.036 62.6628L297.615 66.7863C295.668 65.9871 293.638 65.4071 291.562 65.057V60.0387H283.282V64.8031C281.215 65.0748 279.185 65.5736 277.229 66.2905L274.807 62.0339L267.544 66.23L269.965 70.3535C268.308 71.6215 266.798 73.0694 265.461 74.6705L261.188 72.252L256.999 79.5074L261.127 81.9259C260.319 83.8681 259.739 85.8969 259.396 87.9721H254.469V96.3521H259.239C259.502 98.4178 260.002 100.446 260.728 102.398L256.467 104.817L260.655 112.072L264.784 109.654C266.06 111.306 267.514 112.814 269.117 114.152L266.696 118.409L273.96 122.593L276.381 118.481C278.328 119.28 280.358 119.86 282.434 120.21V125.132H290.824V120.331C292.89 120.061 294.92 119.562 296.877 118.844L299.298 123.101L306.561 118.904L304.14 114.781C305.797 113.513 307.307 112.065 308.644 110.464L312.917 112.882L317.106 105.627L312.99 103.209C313.788 101.264 314.365 99.2358 314.709 97.1623L319.6 97.2953ZM266.854 92.5672C266.854 88.578 268.038 84.6783 270.257 81.3613C272.476 78.0444 275.629 75.4591 279.319 73.9325C283.009 72.4059 287.069 72.0064 290.986 72.7847C294.903 73.563 298.501 75.484 301.325 78.3048C304.149 81.1257 306.072 84.7196 306.851 88.6322C307.631 92.5448 307.231 96.6004 305.702 100.286C304.174 103.972 301.586 107.122 298.265 109.338C294.944 111.554 291.04 112.737 287.047 112.737C284.39 112.745 281.757 112.229 279.3 111.219C276.844 110.209 274.61 108.725 272.729 106.851C270.847 104.977 269.355 102.751 268.336 100.3C267.317 97.8489 266.793 95.2211 266.793 92.5672H266.854Z" stroke="#22181C" stroke-linecap="round" stroke-linejoin="round"/>
<path opacity="0.2" d="M381.595 72.0585V63.6785H376.825C376.556 61.614 376.056 59.586 375.336 57.6323L379.597 55.2138L375.409 47.9584L371.268 50.3769C369.999 48.7222 368.549 47.2135 366.946 45.8785L369.368 41.6099L362.104 37.4259L359.683 41.5374C357.736 40.7397 355.706 40.1637 353.63 39.8202V34.814H345.24V39.5784C343.172 39.8415 341.141 40.3405 339.187 41.0657L336.766 36.8092L329.502 40.9932L331.924 45.1167C330.264 46.3856 328.753 47.8379 327.42 49.4458L323.147 47.0273L318.958 54.2827L323.074 56.7012C322.272 58.6446 321.696 60.6732 321.355 62.7474H316.416V71.1274H321.186C321.458 73.1914 321.957 75.2191 322.675 77.1736L318.413 79.5921L322.614 86.8475L326.742 84.4291C328.012 86.0837 329.461 87.5924 331.064 88.9274L328.643 93.1839L335.907 97.38L338.328 93.2565C340.271 94.0668 342.302 94.6472 344.381 94.9857V99.9073H352.758V95.0945C354.826 94.8292 356.856 94.3302 358.811 93.6072L361.232 97.8637L368.496 93.6797L366.075 89.5562C367.732 88.284 369.242 86.8321 370.578 85.2272L374.84 87.6456L379.04 80.3902L374.912 77.9717C375.712 76.0268 376.293 73.9989 376.643 71.9255L381.595 72.0585ZM328.849 67.3304C328.849 63.3406 330.033 59.4405 332.253 56.1232C334.472 52.806 337.626 50.2208 341.317 48.6945C345.007 47.1682 349.068 46.7695 352.985 47.5488C356.903 48.328 360.501 50.2502 363.324 53.0723C366.148 55.8943 368.07 59.4894 368.848 63.4028C369.626 67.3163 369.224 71.3722 367.694 75.0576C366.164 78.743 363.574 81.8923 360.251 84.1071C356.929 86.322 353.024 87.5029 349.029 87.5005C346.378 87.5005 343.753 86.9787 341.304 85.9649C338.855 84.9511 336.629 83.4652 334.755 81.5921C332.881 79.719 331.395 77.4953 330.381 75.0483C329.368 72.6012 328.847 69.9786 328.849 67.3304Z" stroke="#22181C" stroke-linecap="round" stroke-linejoin="round"/>
<g opacity="0.2">
<path d="M131.641 340.171C143.475 340.171 153.069 330.588 153.069 318.767C153.069 306.947 143.475 297.364 131.641 297.364C119.807 297.364 110.213 306.947 110.213 318.767C110.213 330.588 119.807 340.171 131.641 340.171Z" stroke="#22181C" stroke-linecap="round" stroke-linejoin="round"/>
<path d="M147.721 321.765C149.392 312.892 143.544 304.345 134.66 302.677C125.777 301.008 117.221 306.849 115.55 315.723C113.879 324.596 119.727 333.143 128.611 334.811C137.494 336.48 146.05 330.639 147.721 321.765Z" stroke="#22181C" stroke-linecap="round" stroke-linejoin="round"/>
<path d="M163.02 333.448L151.447 327.184L149.522 330.727L161.095 336.979C160.845 337.451 160.791 338.002 160.945 338.514C161.1 339.025 161.449 339.455 161.918 339.711L184.012 351.635C184.483 351.888 185.035 351.946 185.547 351.794C186.06 351.642 186.492 351.293 186.748 350.824L188.661 347.281C188.915 346.811 188.972 346.26 188.82 345.747C188.668 345.235 188.319 344.804 187.85 344.548L165.804 332.625C165.332 332.376 164.78 332.322 164.268 332.476C163.756 332.63 163.325 332.979 163.068 333.448H163.02Z" stroke="#22181C" stroke-miterlimit="10"/>
</g>
<path opacity="0.2" d="M492.123 73.1589C492.125 77.7849 490.754 82.3077 488.183 86.1552C485.612 90.0027 481.956 93.0021 477.678 94.774C473.4 96.546 468.692 97.0108 464.15 96.1098C459.607 95.2088 455.434 92.9824 452.159 89.7122C448.883 86.442 446.652 82.2749 445.748 77.738C444.843 73.2011 445.306 68.4982 447.078 64.2241C448.85 59.9501 451.85 56.2969 455.701 53.7266C459.552 51.1563 464.079 49.7844 468.71 49.7844" stroke="#22181C" stroke-linecap="round" stroke-linejoin="round"/>
<path opacity="0.2" d="M492.123 73.1589H468.71V49.7844C474.917 49.7844 480.871 52.2466 485.261 56.6299C489.652 61.0131 492.12 66.9585 492.123 73.1589Z" stroke="#22181C" stroke-linecap="round" stroke-linejoin="round"/>
<path opacity="0.2" d="M489.702 57.0398L501.808 47.3659H518.756" stroke="#22181C" stroke-linecap="round" stroke-linejoin="round"/>
<path opacity="0.2" d="M528.441 47.3659H551.043" stroke="#22181C" stroke-linecap="round" stroke-linejoin="round"/>
<path opacity="0.2" d="M528.441 54.6213H551.043" stroke="#22181C" stroke-linecap="round" stroke-linejoin="round"/>
<path opacity="0.2" d="M528.441 61.8767H551.043" stroke="#22181C" stroke-linecap="round" stroke-linejoin="round"/>
<path opacity="0.2" d="M528.441 69.1322H551.043" stroke="#22181C" stroke-linecap="round" stroke-linejoin="round"/>
<g opacity="0.2">
<path d="M232.109 322.395L231.238 318.139H215.923L216.795 322.395L217.57 326.192L222.776 351.586H263.694L257.714 322.395H232.109Z" stroke="#22181C" stroke-linecap="round" stroke-linejoin="round"/>
<path d="M263.694 351.586L271.248 324.366H258.355" stroke="#22181C" stroke-linecap="round" stroke-linejoin="round"/>
</g>
<g opacity="0.2">
<path d="M289.565 322.395L288.693 318.139H273.367L274.25 322.395L275.025 326.192L280.231 351.586H321.149L315.169 322.395H289.565Z" stroke="#22181C" stroke-linecap="round" stroke-linejoin="round"/>
<path d="M321.149 351.586L328.691 324.366H315.798" stroke="#22181C" stroke-linecap="round" stroke-linejoin="round"/>
</g>
<path d="M376.498 254.46C376.789 254.457 377.078 254.511 377.348 254.619C377.618 254.728 377.864 254.888 378.072 255.091C378.28 255.294 378.446 255.537 378.56 255.804C378.674 256.071 378.735 256.358 378.738 256.649V270.483C378.696 271.046 378.443 271.573 378.029 271.957C377.614 272.342 377.07 272.555 376.504 272.555C375.939 272.555 375.394 272.342 374.98 271.957C374.566 271.573 374.312 271.046 374.271 270.483V256.649C374.272 256.359 374.331 256.072 374.444 255.805C374.557 255.538 374.722 255.295 374.929 255.092C375.136 254.888 375.381 254.728 375.65 254.62C375.92 254.511 376.208 254.457 376.498 254.46Z" fill="#263238"/>
<path d="M371.111 254.46C371.401 254.457 371.689 254.511 371.959 254.62C372.228 254.728 372.473 254.888 372.68 255.092C372.887 255.295 373.052 255.538 373.165 255.805C373.278 256.072 373.337 256.359 373.338 256.649V270.483C373.297 271.046 373.044 271.573 372.629 271.957C372.215 272.342 371.67 272.555 371.105 272.555C370.539 272.555 369.995 272.342 369.581 271.957C369.166 271.573 368.913 271.046 368.871 270.483V256.649C368.874 256.358 368.935 256.071 369.049 255.804C369.163 255.537 369.329 255.294 369.537 255.091C369.745 254.888 369.991 254.728 370.261 254.619C370.531 254.511 370.82 254.457 371.111 254.46Z" fill="#263238"/>
<path d="M365.748 254.46C366.039 254.457 366.328 254.511 366.598 254.619C366.868 254.728 367.114 254.888 367.322 255.091C367.53 255.294 367.695 255.537 367.81 255.804C367.924 256.071 367.984 256.358 367.988 256.649V270.483C367.984 270.773 367.924 271.06 367.81 271.328C367.695 271.595 367.53 271.837 367.322 272.04C367.114 272.244 366.868 272.404 366.598 272.512C366.328 272.62 366.039 272.674 365.748 272.671C365.458 272.674 365.169 272.62 364.9 272.512C364.631 272.403 364.386 272.243 364.179 272.04C363.972 271.836 363.807 271.594 363.694 271.327C363.581 271.059 363.522 270.773 363.52 270.483V256.649C363.522 256.359 363.581 256.072 363.694 255.805C363.807 255.538 363.972 255.295 364.179 255.092C364.386 254.888 364.631 254.728 364.9 254.62C365.169 254.511 365.458 254.457 365.748 254.46Z" fill="#263238"/>
<path d="M360.397 254.46C360.687 254.457 360.976 254.511 361.245 254.62C361.514 254.728 361.759 254.888 361.966 255.092C362.173 255.295 362.338 255.538 362.451 255.805C362.564 256.072 362.623 256.359 362.625 256.649V270.483C362.583 271.046 362.33 271.573 361.915 271.957C361.501 272.342 360.957 272.555 360.391 272.555C359.826 272.555 359.281 272.342 358.867 271.957C358.452 271.573 358.199 271.046 358.157 270.483V256.649C358.161 256.358 358.221 256.071 358.335 255.804C358.45 255.537 358.615 255.294 358.823 255.091C359.031 254.888 359.277 254.728 359.547 254.619C359.817 254.511 360.106 254.457 360.397 254.46Z" fill="#263238"/>
<path d="M355.034 254.46C355.325 254.457 355.614 254.511 355.884 254.619C356.154 254.728 356.4 254.888 356.608 255.091C356.816 255.294 356.982 255.537 357.096 255.804C357.21 256.071 357.271 256.358 357.274 256.649V270.483C357.232 271.046 356.979 271.573 356.565 271.957C356.15 272.342 355.606 272.555 355.04 272.555C354.475 272.555 353.93 272.342 353.516 271.957C353.102 271.573 352.848 271.046 352.807 270.483V256.649C352.813 256.064 353.051 255.506 353.468 255.095C353.886 254.685 354.449 254.457 355.034 254.46Z" fill="#263238"/>
<path d="M349.683 254.46C349.974 254.457 350.262 254.511 350.531 254.62C350.8 254.728 351.046 254.888 351.253 255.092C351.46 255.295 351.624 255.538 351.737 255.805C351.85 256.072 351.909 256.359 351.911 256.649V270.483C351.909 270.773 351.85 271.059 351.737 271.327C351.624 271.594 351.46 271.836 351.253 272.04C351.046 272.243 350.8 272.403 350.531 272.512C350.262 272.62 349.974 272.674 349.683 272.671C349.393 272.674 349.105 272.62 348.835 272.512C348.566 272.403 348.321 272.243 348.114 272.04C347.907 271.836 347.742 271.594 347.629 271.327C347.516 271.059 347.457 270.773 347.456 270.483V256.649C347.457 256.359 347.516 256.072 347.629 255.805C347.742 255.538 347.907 255.295 348.114 255.092C348.321 254.888 348.566 254.728 348.835 254.62C349.105 254.511 349.393 254.457 349.683 254.46Z" fill="#263238"/>
<path d="M344.32 254.46C344.611 254.457 344.9 254.511 345.17 254.619C345.44 254.728 345.686 254.888 345.894 255.091C346.102 255.294 346.268 255.537 346.382 255.804C346.496 256.071 346.557 256.358 346.56 256.649V270.483C346.518 271.046 346.265 271.573 345.851 271.957C345.436 272.342 344.892 272.555 344.326 272.555C343.761 272.555 343.216 272.342 342.802 271.957C342.388 271.573 342.134 271.046 342.093 270.483V256.649C342.099 256.064 342.337 255.506 342.754 255.095C343.172 254.685 343.735 254.457 344.32 254.46Z" fill="#263238"/>
<path d="M338.969 254.46C339.26 254.457 339.548 254.511 339.817 254.62C340.087 254.728 340.332 254.888 340.539 255.092C340.746 255.295 340.91 255.538 341.023 255.805C341.136 256.072 341.195 256.359 341.197 256.649V270.483C341.197 271.073 340.962 271.639 340.544 272.056C340.127 272.473 339.56 272.708 338.969 272.708C338.379 272.708 337.812 272.473 337.394 272.056C336.977 271.639 336.742 271.073 336.742 270.483V256.649C336.743 256.359 336.802 256.072 336.915 255.805C337.028 255.538 337.193 255.295 337.4 255.092C337.607 254.888 337.852 254.728 338.122 254.62C338.391 254.511 338.679 254.457 338.969 254.46Z" fill="#263238"/>
<path d="M333.606 254.46C333.897 254.457 334.186 254.511 334.456 254.619C334.726 254.728 334.972 254.888 335.18 255.091C335.388 255.294 335.554 255.537 335.668 255.804C335.782 256.071 335.843 256.358 335.846 256.649V270.483C335.804 271.046 335.551 271.573 335.137 271.957C334.722 272.342 334.178 272.555 333.612 272.555C333.047 272.555 332.502 272.342 332.088 271.957C331.674 271.573 331.42 271.046 331.379 270.483V256.649C331.385 256.064 331.623 255.506 332.041 255.095C332.458 254.685 333.021 254.457 333.606 254.46Z" fill="#263238"/>
<path d="M328.256 254.46C328.546 254.457 328.834 254.511 329.103 254.62C329.373 254.728 329.618 254.888 329.825 255.092C330.032 255.295 330.197 255.538 330.31 255.805C330.422 256.072 330.481 256.359 330.483 256.649V270.483C330.483 271.073 330.248 271.639 329.831 272.056C329.413 272.473 328.846 272.708 328.256 272.708C327.665 272.708 327.098 272.473 326.68 272.056C326.263 271.639 326.028 271.073 326.028 270.483V256.649C326.03 256.359 326.089 256.072 326.201 255.805C326.314 255.538 326.479 255.295 326.686 255.092C326.893 254.888 327.138 254.728 327.408 254.62C327.677 254.511 327.965 254.457 328.256 254.46Z" fill="#263238"/>
<path d="M322.905 254.46C323.49 254.457 324.053 254.685 324.47 255.095C324.888 255.506 325.126 256.064 325.132 256.649V270.483C325.091 271.046 324.837 271.573 324.423 271.957C324.009 272.342 323.464 272.555 322.899 272.555C322.333 272.555 321.789 272.342 321.374 271.957C320.96 271.573 320.707 271.046 320.665 270.483V256.649C320.668 256.358 320.729 256.071 320.843 255.804C320.957 255.537 321.123 255.294 321.331 255.091C321.539 254.888 321.785 254.728 322.055 254.619C322.325 254.511 322.614 254.457 322.905 254.46Z" fill="#263238"/>
<path d="M319.067 254.46C319.017 254.671 319.017 254.89 319.067 255.101C319.275 255.302 319.44 255.542 319.552 255.808C319.665 256.074 319.722 256.36 319.721 256.649V270.483C319.722 270.771 319.665 271.057 319.552 271.323C319.44 271.589 319.275 271.83 319.067 272.03C318.1 272.489 317.037 272.709 315.968 272.671C313.45 272.671 311.852 271.692 312.409 270.483L318.123 256.649C318.489 255.942 318.804 255.211 319.067 254.46Z" fill="#263238"/>
<path d="M319.067 254.46C318.646 255.163 318.274 255.894 317.953 256.649L310.883 270.483C310.326 271.692 307.821 272.671 305.302 272.671C302.784 272.671 301.767 271.692 303.027 270.483L316.876 256.649L318.474 255.101C318.873 254.702 319.067 254.46 319.067 254.46Z" fill="#263238"/>
<path d="M319.067 254.46C319.067 254.46 318.825 254.654 318.425 255.053L316.876 256.649L303.027 270.483C301.816 271.692 300.835 270.688 300.835 268.064C300.835 265.44 301.816 262.961 303.027 262.417L316.876 255.5C317.632 255.209 318.364 254.862 319.067 254.46Z" fill="#263238"/>
<path d="M319.067 254.46C318.317 254.698 317.584 254.988 316.876 255.331L303.027 260.857C301.816 261.389 300.835 259.744 300.835 257.169C300.837 256.572 300.898 255.976 301.017 255.391C301.066 255.13 301.13 254.871 301.211 254.617C301.234 254.523 301.279 254.436 301.344 254.363L301.477 254.206C301.677 253.997 301.918 253.83 302.184 253.716C302.45 253.602 302.737 253.542 303.027 253.541H316.876C317.166 253.542 317.452 253.602 317.718 253.716C317.985 253.83 318.225 253.997 318.425 254.206L318.571 254.363C318.571 254.436 318.655 254.484 318.692 254.472H319.067V254.46Z" fill="#263238"/>
<path d="M319.067 250.312C319.073 250.606 319.022 250.897 318.915 251.17C318.808 251.444 318.648 251.693 318.445 251.904C318.241 252.116 317.998 252.285 317.728 252.401C317.459 252.518 317.169 252.581 316.876 252.586H303.027C302.45 252.544 301.911 252.285 301.517 251.863C301.124 251.44 300.905 250.884 300.905 250.306C300.905 249.729 301.124 249.173 301.517 248.75C301.911 248.327 302.45 248.069 303.027 248.027H316.876C317.17 248.033 317.46 248.097 317.729 248.216C317.999 248.334 318.242 248.504 318.445 248.716C318.649 248.928 318.809 249.179 318.915 249.453C319.022 249.726 319.073 250.019 319.067 250.312Z" fill="#263238"/>
<path d="M319.067 244.871C319.073 245.165 319.022 245.457 318.915 245.731C318.809 246.005 318.649 246.255 318.445 246.467C318.242 246.679 317.999 246.849 317.729 246.968C317.46 247.086 317.17 247.15 316.876 247.156H303.027C302.45 247.114 301.911 246.856 301.517 246.433C301.124 246.01 300.905 245.454 300.905 244.877C300.905 244.3 301.124 243.744 301.517 243.321C301.911 242.898 302.45 242.639 303.027 242.597H316.876C317.169 242.602 317.459 242.665 317.728 242.782C317.998 242.899 318.241 243.068 318.445 243.279C318.648 243.49 318.808 243.74 318.915 244.013C319.022 244.286 319.073 244.578 319.067 244.871Z" fill="#263238"/>
<path d="M319.067 239.429C319.073 239.723 319.022 240.015 318.915 240.289C318.809 240.563 318.649 240.813 318.445 241.025C318.242 241.238 317.999 241.408 317.729 241.526C317.46 241.644 317.17 241.708 316.876 241.715H303.027C302.45 241.673 301.911 241.414 301.517 240.992C301.124 240.569 300.905 240.013 300.905 239.435C300.905 238.858 301.124 238.302 301.517 237.879C301.911 237.456 302.45 237.198 303.027 237.156H316.876C317.169 237.161 317.459 237.223 317.728 237.34C317.998 237.457 318.241 237.626 318.445 237.837C318.648 238.049 318.808 238.298 318.915 238.571C319.022 238.844 319.073 239.136 319.067 239.429Z" fill="#263238"/>
<path d="M319.067 233.939C319.073 234.233 319.022 234.524 318.915 234.797C318.808 235.07 318.648 235.32 318.445 235.531C318.241 235.742 317.998 235.911 317.728 236.028C317.459 236.145 317.169 236.208 316.876 236.213H303.027C302.45 236.171 301.911 235.912 301.517 235.489C301.124 235.067 300.905 234.511 300.905 233.933C300.905 233.356 301.124 232.8 301.517 232.377C301.911 231.954 302.45 231.696 303.027 231.654H316.876C317.17 231.66 317.46 231.724 317.729 231.843C317.999 231.961 318.242 232.131 318.445 232.343C318.649 232.555 318.809 232.806 318.915 233.079C319.022 233.353 319.073 233.646 319.067 233.939Z" fill="#263238"/>
<path d="M319.067 228.461C319.073 228.755 319.022 229.047 318.915 229.321C318.809 229.595 318.649 229.845 318.445 230.058C318.242 230.27 317.999 230.44 317.729 230.558C317.46 230.677 317.17 230.741 316.876 230.747H303.027C302.45 230.705 301.911 230.447 301.517 230.024C301.124 229.601 300.905 229.045 300.905 228.468C300.905 227.89 301.124 227.334 301.517 226.911C301.911 226.488 302.45 226.23 303.027 226.188H316.876C317.169 226.193 317.459 226.255 317.728 226.372C317.998 226.489 318.241 226.658 318.445 226.87C318.648 227.081 318.808 227.33 318.915 227.603C319.022 227.877 319.073 228.168 319.067 228.461Z" fill="#263238"/>
<path d="M319.067 222.996C319.073 223.289 319.022 223.581 318.915 223.854C318.808 224.127 318.648 224.376 318.445 224.588C318.241 224.799 317.998 224.968 317.728 225.085C317.459 225.202 317.169 225.264 316.876 225.269H303.027C302.45 225.227 301.911 224.969 301.517 224.546C301.124 224.123 300.905 223.567 300.905 222.99C300.905 222.412 301.124 221.856 301.517 221.433C301.911 221.011 302.45 220.752 303.027 220.71H316.876C317.17 220.717 317.46 220.781 317.729 220.899C317.999 221.017 318.242 221.187 318.445 221.4C318.649 221.612 318.809 221.862 318.915 222.136C319.022 222.41 319.073 222.702 319.067 222.996Z" fill="#263238"/>
<path d="M319.067 216.176C319.069 216.772 319.012 217.368 318.898 217.953C318.845 218.215 318.776 218.474 318.692 218.727C318.672 218.817 318.631 218.9 318.571 218.969L318.425 219.138C318.225 219.347 317.985 219.514 317.718 219.628C317.452 219.743 317.166 219.802 316.876 219.803H303.027C302.737 219.802 302.45 219.743 302.184 219.628C301.918 219.514 301.677 219.347 301.477 219.138C301.426 219.087 301.381 219.03 301.344 218.969C301.344 218.908 301.259 218.86 301.211 218.872H300.835C301.59 218.648 302.324 218.357 303.027 218.002L316.876 212.487C318.086 211.943 319.067 213.6 319.067 216.176Z" fill="#263238"/>
<path d="M319.067 205.232C319.067 207.808 318.086 210.335 316.876 210.879L303.027 217.784C302.275 218.102 301.543 218.465 300.835 218.872C301.062 218.689 301.277 218.491 301.477 218.28L303.027 216.696L316.876 202.862C318.086 201.592 319.067 202.656 319.067 205.232Z" fill="#263238"/>
<path d="M314.757 200.734C317.178 200.734 318.135 201.713 316.876 202.922L303.027 216.696L301.441 218.243C301.041 218.63 300.835 218.872 300.835 218.872C301.291 218.177 301.696 217.45 302.046 216.696L309.31 202.862C309.915 201.653 312.336 200.734 314.757 200.734Z" fill="#263238"/>
<path d="M304.407 200.734C306.828 200.734 308.353 201.713 307.772 202.922L301.792 216.756C301.423 217.459 301.103 218.186 300.835 218.933C300.86 218.724 300.86 218.513 300.835 218.304V217.977C300.759 217.859 300.694 217.733 300.642 217.603C300.528 217.335 300.471 217.047 300.472 216.756V202.862C300.472 202.567 300.53 202.276 300.642 202.003C300.692 201.875 300.757 201.753 300.835 201.641C300.992 201.513 301.162 201.403 301.344 201.314C302.307 200.889 303.355 200.69 304.407 200.734Z" fill="#263238"/>
<path d="M297.458 200.734C298.034 200.74 298.583 200.974 298.987 201.384C299.391 201.794 299.616 202.347 299.613 202.922V216.696C299.613 217.266 299.386 217.814 298.981 218.218C298.577 218.621 298.029 218.848 297.458 218.848C296.886 218.848 296.338 218.621 295.934 218.218C295.53 217.814 295.303 217.266 295.303 216.696V202.862C295.312 202.296 295.543 201.757 295.946 201.359C296.349 200.961 296.891 200.737 297.458 200.734Z" fill="#263238"/>
<path d="M292.276 200.734C292.562 200.735 292.844 200.793 293.108 200.904C293.371 201.015 293.609 201.177 293.809 201.38C294.01 201.584 294.168 201.825 294.274 202.089C294.381 202.354 294.434 202.637 294.431 202.922V216.696C294.431 217.266 294.204 217.814 293.8 218.218C293.396 218.621 292.848 218.848 292.276 218.848C291.705 218.848 291.157 218.621 290.753 218.218C290.348 217.814 290.121 217.266 290.121 216.696V202.862C290.134 202.297 290.366 201.759 290.768 201.362C291.17 200.965 291.711 200.74 292.276 200.734Z" fill="#263238"/>
<path d="M287.107 200.734C287.683 200.74 288.233 200.974 288.637 201.384C289.04 201.794 289.265 202.347 289.262 202.922V216.696C289.264 216.98 289.209 217.262 289.102 217.525C288.994 217.788 288.836 218.028 288.636 218.23C288.436 218.432 288.198 218.593 287.935 218.703C287.673 218.813 287.392 218.871 287.107 218.872C286.822 218.871 286.541 218.813 286.279 218.703C286.016 218.593 285.778 218.432 285.578 218.23C285.378 218.028 285.22 217.788 285.112 217.525C285.005 217.262 284.951 216.98 284.952 216.696V202.862C284.965 202.297 285.197 201.759 285.599 201.362C286.001 200.965 286.542 200.74 287.107 200.734Z" fill="#263238"/>
<path d="M283.439 227.337V192.559C285.216 192.558 286.975 192.906 288.617 193.584C290.259 194.262 291.752 195.257 293.009 196.511C294.266 197.766 295.263 199.255 295.943 200.895C296.623 202.534 296.973 204.292 296.973 206.066V213.793C296.978 215.571 296.632 217.333 295.953 218.976C295.275 220.62 294.279 222.114 293.021 223.372C291.764 224.63 290.27 225.628 288.626 226.309C286.981 226.989 285.219 227.338 283.439 227.337Z" fill="white" stroke="#263238" stroke-linecap="round" stroke-linejoin="round"/>
<path d="M248.658 260.809L284.843 242.972C286.551 242.131 287.989 240.828 288.995 239.213C290 237.597 290.533 235.733 290.533 233.83V186.67C290.533 184.768 290 182.903 288.995 181.288C287.989 179.672 286.551 178.37 284.843 177.528L248.658 159.692V260.809Z" fill="white" stroke="#263238" stroke-linecap="round" stroke-linejoin="round"/>
<path d="M316.307 280.652H343.025" stroke="#263238" stroke-linecap="round" stroke-linejoin="round"/>
<path d="M310.956 285.332H321.646" stroke="#263238" stroke-linecap="round" stroke-linejoin="round"/>
<path d="M327.662 211.532V237.567" stroke="#263238" stroke-linecap="round" stroke-linejoin="round"/>
<path d="M322.989 220.88V204.869" stroke="#263238" stroke-linecap="round" stroke-linejoin="round"/>
<path d="M292.252 253.577V266.927" stroke="#263238" stroke-linecap="round" stroke-linejoin="round"/>
<path d="M296.925 248.91V260.93" stroke="#263238" stroke-linecap="round" stroke-linejoin="round"/>
<path d="M526.795 159.632H533.756" stroke="#263238" stroke-width="9" stroke-linecap="round" stroke-linejoin="round"/>
<path d="M473.468 243.009H501.287V159.632H526.795" stroke="#263238" stroke-width="4" stroke-linecap="round" stroke-linejoin="round"/>
<path d="M526.795 327.933H535.293" stroke="#263238" stroke-width="9" stroke-linecap="round" stroke-linejoin="round"/>
<path d="M468.056 268.487H500.512V327.933H526.795" stroke="#263238" stroke-width="4" stroke-linecap="round" stroke-linejoin="round"/>
<path d="M367.866 164.082H360.93V226.853" stroke="#263238" stroke-width="4" stroke-linecap="round" stroke-linejoin="round"/>
<path d="M373.266 164.082H367.866" stroke="#263238" stroke-width="7" stroke-linecap="round" stroke-linejoin="round"/>
<path d="M435.297 187.638H403.591V221.569H435.297V187.638Z" fill="#263238" stroke="#263238" stroke-linecap="round" stroke-linejoin="round"/>
<path d="M464.521 140.707H433.384V171.252H464.521V140.707Z" fill="#263238" stroke="#263238" stroke-linecap="round" stroke-linejoin="round"/>
<path d="M452.064 171.24H465.865C461.799 182.027 454.048 191.032 443.981 196.666C433.915 202.299 422.179 204.199 410.846 202.029C399.513 199.859 389.312 193.76 382.044 184.808C374.776 175.855 370.908 164.626 371.123 153.102C371.123 152.34 371.123 151.566 371.196 150.804C371.958 139.092 376.911 128.044 385.151 119.677C393.39 111.309 404.367 106.18 416.078 105.226C427.789 104.271 439.454 107.554 448.943 114.477C458.432 121.399 465.112 131.498 467.766 142.932H452.028C448.274 142.932 444.675 144.421 442.021 147.072C439.367 149.723 437.876 153.319 437.876 157.068C437.876 160.817 439.367 164.413 442.021 167.064C444.675 169.715 448.274 171.204 452.028 171.204L452.064 171.24Z" fill="white" stroke="#263238" stroke-linecap="round" stroke-linejoin="round"/>
<path d="M423.76 155.968H437.912" stroke="#263238" stroke-linecap="round" stroke-linejoin="round"/>
<path d="M412.429 107.332V200.649" stroke="#263238" stroke-linecap="round" stroke-linejoin="round"/>
<path d="M411.303 168.411C418.183 168.411 423.76 162.84 423.76 155.968C423.76 149.095 418.183 143.525 411.303 143.525C404.423 143.525 398.846 149.095 398.846 155.968C398.846 162.84 404.423 168.411 411.303 168.411Z" fill="#263238" stroke="#263238" stroke-linecap="round" stroke-linejoin="round"/>
<path d="M417.526 155.992C417.526 154.76 417.16 153.555 416.474 152.531C415.788 151.506 414.814 150.708 413.674 150.237C412.534 149.766 411.28 149.644 410.07 149.885C408.86 150.126 407.749 150.72 406.878 151.593C406.007 152.465 405.414 153.575 405.175 154.784C404.935 155.993 405.061 157.246 405.534 158.383C406.008 159.521 406.809 160.493 407.836 161.176C408.863 161.859 410.069 162.222 411.303 162.219C412.121 162.219 412.931 162.058 413.687 161.745C414.443 161.432 415.129 160.973 415.707 160.395C416.285 159.816 416.743 159.13 417.055 158.374C417.367 157.619 417.527 156.809 417.526 155.992Z" fill="white" stroke="#263238" stroke-linecap="round" stroke-linejoin="round"/>
<path d="M453.202 162.183C456.639 162.183 459.425 159.4 459.425 155.968C459.425 152.535 456.639 149.752 453.202 149.752C449.765 149.752 446.98 152.535 446.98 155.968C446.98 159.4 449.765 162.183 453.202 162.183Z" fill="#F6E8EA"/>
<path d="M386.958 153.138V178.024H377.442C373.134 170.447 370.951 161.85 371.123 153.138H386.958Z" fill="#263238" stroke="#263238" stroke-linecap="round" stroke-linejoin="round"/>
<path d="M419.438 319.239V392.7" stroke="#263238" stroke-width="3" stroke-linecap="round" stroke-linejoin="round"/>
<path d="M419.438 370.039C429.882 370.039 438.348 361.583 438.348 351.151C438.348 340.719 429.882 332.263 419.438 332.263C408.995 332.263 400.529 340.719 400.529 351.151C400.529 361.583 408.995 370.039 419.438 370.039Z" fill="white" stroke="#263238" stroke-linecap="round" stroke-linejoin="round"/>
<path d="M419.438 397.997C424.453 397.997 428.518 393.936 428.518 388.927C428.518 383.919 424.453 379.858 419.438 379.858C414.424 379.858 410.359 383.919 410.359 388.927C410.359 393.936 414.424 397.997 419.438 397.997Z" fill="white" stroke="#263238" stroke-linecap="round" stroke-linejoin="round"/>
<path d="M487.172 234.326L466.289 296.493C460.466 313.81 442.815 325.636 422.804 325.636H416.061C396.049 325.636 378.399 313.81 372.588 296.493L351.693 234.326C348.521 224.882 356.342 215.353 367.249 215.353H471.615C482.535 215.353 490.295 224.918 487.172 234.326Z" fill="white" stroke="#263238" stroke-linecap="round" stroke-linejoin="round"/>
<path d="M478.443 240.155C475.914 239.47 473.219 239.77 470.903 240.996C468.588 242.222 466.826 244.282 465.974 246.757L449.134 295.997C448.309 298.395 448.4 301.013 449.39 303.348C450.38 305.683 452.199 307.57 454.497 308.646L458.129 310.375C461.758 306.349 464.526 301.625 466.264 296.493L484.654 241.848L478.443 240.155Z" fill="white" stroke="#263238" stroke-linecap="round" stroke-linejoin="round"/>
<path d="M372.382 246.757C371.533 244.28 369.771 242.219 367.455 240.992C365.139 239.766 362.442 239.467 359.913 240.155L354.187 241.715L372.588 296.493C374.309 301.551 377.025 306.213 380.578 310.206L383.883 308.646C386.183 307.572 388.005 305.686 388.997 303.351C389.99 301.016 390.082 298.397 389.258 295.997L372.382 246.757Z" fill="white" stroke="#263238" stroke-linecap="round" stroke-linejoin="round"/>
<path d="M452.112 215.353C451.865 217.649 450.775 219.773 449.055 221.316C447.334 222.858 445.103 223.711 442.791 223.709H394.367C392.055 223.711 389.824 222.858 388.103 221.316C386.382 219.773 385.293 217.649 385.045 215.353H452.112Z" fill="white" stroke="#263238" stroke-linecap="round" stroke-linejoin="round"/>
<path d="M419.487 325.285V223.709" stroke="#263238" stroke-linecap="round" stroke-linejoin="round"/>
<path d="M446.992 235.802H391.885C388.502 235.802 385.759 238.541 385.759 241.92V267C385.759 270.379 388.502 273.119 391.885 273.119H446.992C450.375 273.119 453.117 270.379 453.117 267V241.92C453.117 238.541 450.375 235.802 446.992 235.802Z" fill="#F6E8EA" stroke="#263238" stroke-linecap="round" stroke-linejoin="round"/>
<path d="M410.782 240.542C412.465 240.542 413.204 241.558 413.204 243.226V248.668C413.204 250.325 412.429 251.34 410.782 251.34H408.252V240.542H410.782ZM410.782 250.216C411.642 250.216 412.066 249.672 412.066 248.68V243.13C412.066 242.138 411.642 241.606 410.758 241.606H409.463V250.312L410.782 250.216Z" fill="#263238"/>
<path d="M415.564 249.164L415.153 251.34H414.027L416.097 240.542H417.84L419.91 251.34H418.7L418.276 249.164H415.564ZM415.722 248.136H418.143L416.932 241.896L415.722 248.136Z" fill="#263238"/>
<path d="M421.835 251.34V241.666H419.85V240.566H425.019V241.666H423.034V251.34H421.835Z" fill="#263238"/>
<path d="M426.472 249.164L426.06 251.34H424.922L426.992 240.542H428.736L430.806 251.34H429.595L429.172 249.164H426.472ZM426.629 248.136H429.05L427.84 241.896L426.629 248.136Z" fill="#263238"/>
<path d="M395.541 260.18V261.256H392.902V265.101H396.146V266.19H391.703V255.391H396.146V256.492H392.902V260.119L395.541 260.18Z" fill="#263238"/>
<path d="M399.948 261.534L398.144 266.19H396.994L399.173 260.627L397.139 255.391H398.35L400.02 259.708L401.703 255.391H402.829L400.807 260.627L402.974 266.19H401.763L399.948 261.534Z" fill="#263238"/>
<path d="M405.553 266.19V256.516H403.555V255.415H408.737V256.516H406.763V266.19H405.553Z" fill="#263238"/>
<path d="M411.945 255.391C413.652 255.391 414.366 256.262 414.366 257.81V258.777C414.44 259.247 414.346 259.727 414.1 260.134C413.854 260.541 413.472 260.848 413.022 261.002C414.015 261.292 414.39 262.09 414.39 263.251V264.932C414.354 265.374 414.424 265.817 414.596 266.226H413.385C413.209 265.815 413.138 265.366 413.179 264.92V263.215C413.179 262.006 412.61 261.619 411.606 261.619H410.758V266.226H409.548V255.391H411.945ZM411.642 260.482C412.598 260.482 413.167 260.18 413.167 259.007V257.967C413.167 257 412.816 256.492 411.957 256.492H410.746V260.482H411.642Z" fill="#263238"/>
<path d="M416.848 264.013L416.424 266.19H415.31L417.38 255.391H419.136L421.206 266.19H419.995L419.584 264.013H416.848ZM416.993 262.985H419.414L418.203 256.746L416.993 262.985Z" fill="#263238"/>
<path d="M426.896 258.003V258.971H425.758V257.943C425.758 256.963 425.37 256.383 424.487 256.383C423.603 256.383 423.276 256.963 423.276 257.943V263.614C423.276 264.581 423.675 265.174 424.487 265.174C425.298 265.174 425.758 264.581 425.758 263.614V262.211H426.896V263.614C426.896 265.247 426.133 266.323 424.474 266.323C422.816 266.323 422.053 265.247 422.053 263.614V258.027C422.053 256.383 422.828 255.307 424.474 255.307C426.121 255.307 426.896 256.359 426.896 258.003Z" fill="#263238"/>
<path d="M429.559 266.19V256.516H427.561V255.415H432.743V256.516H430.745V266.19H429.559Z" fill="#263238"/>
<path d="M434.765 255.391V266.19H433.554V255.391H434.765Z" fill="#263238"/>
<path d="M435.903 258.003C435.903 256.347 436.726 255.282 438.324 255.282C439.922 255.282 440.818 256.347 440.818 258.003V263.614C440.86 263.961 440.826 264.314 440.719 264.647C440.612 264.98 440.433 265.286 440.196 265.543C439.959 265.801 439.669 266.004 439.346 266.138C439.022 266.273 438.674 266.336 438.324 266.323C436.677 266.323 435.903 265.247 435.903 263.614V258.003ZM437.113 263.65C437.113 264.63 437.537 265.21 438.396 265.21C439.256 265.21 439.68 264.63 439.68 263.65V257.943C439.68 256.963 439.28 256.383 438.396 256.383C437.513 256.383 437.113 256.963 437.113 257.943V263.65Z" fill="#263238"/>
<path d="M443.081 266.19H442.004V255.391H443.529L446.035 263.203V255.391H447.101V266.19H445.89L443.081 257.459V266.19Z" fill="#263238"/>
<path d="M419.438 292.031C423.45 292.031 426.702 288.783 426.702 284.776C426.702 280.769 423.45 277.52 419.438 277.52C415.427 277.52 412.175 280.769 412.175 284.776C412.175 288.783 415.427 292.031 419.438 292.031Z" fill="#263238" stroke="#263238" stroke-linecap="round" stroke-linejoin="round"/>
<path d="M419.438 287.799C421.11 287.799 422.465 286.445 422.465 284.776C422.465 283.106 421.11 281.753 419.438 281.753C417.767 281.753 416.412 283.106 416.412 284.776C416.412 286.445 417.767 287.799 419.438 287.799Z" fill="#F6E8EA"/>
<path d="M714.027 85.5778H546.564C537.872 85.5778 530.826 92.616 530.826 101.298V216.683C530.826 225.365 537.872 232.404 546.564 232.404H714.027C722.719 232.404 729.765 225.365 729.765 216.683V101.298C729.765 92.616 722.719 85.5778 714.027 85.5778Z" fill="#263238" stroke="#263238" stroke-linecap="round" stroke-linejoin="round"/>
<path d="M710.177 94.5383H550.414C544.222 94.5383 539.203 99.5516 539.203 105.736V212.233C539.203 218.418 544.222 223.431 550.414 223.431H710.177C716.368 223.431 721.387 218.418 721.387 212.233V105.736C721.387 99.5516 716.368 94.5383 710.177 94.5383Z" fill="white" stroke="#263238" stroke-linecap="round" stroke-linejoin="round"/>
<path d="M707.211 116.075H562.762V121.335H707.211V116.075Z" fill="#E0E0E0"/>
<path d="M707.211 128.457H562.762V133.718H707.211V128.457Z" fill="#E0E0E0"/>
<path d="M707.211 140.84H562.762V146.1H707.211V140.84Z" fill="#E0E0E0"/>
<path d="M707.211 153.235H562.762V158.495H707.211V153.235Z" fill="#E0E0E0"/>
<path d="M707.211 165.617H562.762V170.878H707.211V165.617Z" fill="#E0E0E0"/>
<path d="M707.211 178H562.762V183.26H707.211V178Z" fill="#E0E0E0"/>
<path d="M707.211 190.383H562.762V195.643H707.211V190.383Z" fill="#E0E0E0"/>
<path d="M577.761 146.947H563.694V204.99H577.761V146.947Z" fill="#263238"/>
<path d="M599.274 163.223H585.206V204.99H599.274V163.223Z" fill="#F6E8EA"/>
<path d="M620.798 153.102H606.731V204.99H620.798V153.102Z" fill="#263238"/>
<path d="M642.311 174.082H628.243V205.002H642.311V174.082Z" fill="#F6E8EA"/>
<path d="M663.835 154.19H649.768V205.002H663.835V154.19Z" fill="#263238"/>
<path d="M685.348 140.804H671.28V204.99H685.348V140.804Z" fill="#F6E8EA"/>
<path d="M706.86 132.484H692.793V204.99H706.86V132.484Z" fill="#263238"/>
<path d="M552.108 117.054H556.915" stroke="#263238" stroke-linecap="round" stroke-linejoin="round"/>
<path d="M552.108 123.947H556.915" stroke="#263238" stroke-linecap="round" stroke-linejoin="round"/>
<path d="M552.108 130.852H556.915" stroke="#263238" stroke-linecap="round" stroke-linejoin="round"/>
<path d="M552.108 137.756H556.915" stroke="#263238" stroke-linecap="round" stroke-linejoin="round"/>
<path d="M552.108 144.661H556.915" stroke="#263238" stroke-linecap="round" stroke-linejoin="round"/>
<path d="M552.108 151.554H556.915" stroke="#263238" stroke-linecap="round" stroke-linejoin="round"/>
<path d="M552.108 158.459H556.915" stroke="#263238" stroke-linecap="round" stroke-linejoin="round"/>
<path d="M552.108 165.363H556.915" stroke="#263238" stroke-linecap="round" stroke-linejoin="round"/>
<path d="M552.108 172.268H556.915" stroke="#263238" stroke-linecap="round" stroke-linejoin="round"/>
<path d="M552.108 179.161H556.915" stroke="#263238" stroke-linecap="round" stroke-linejoin="round"/>
<path d="M552.108 186.066H556.915" stroke="#263238" stroke-linecap="round" stroke-linejoin="round"/>
<path d="M552.108 192.97H556.915" stroke="#263238" stroke-linecap="round" stroke-linejoin="round"/>
<path d="M552.108 199.875H556.915" stroke="#263238" stroke-linecap="round" stroke-linejoin="round"/>
<path d="M552.108 206.768H556.915" stroke="#263238" stroke-linecap="round" stroke-linejoin="round"/>
<path d="M707.26 208.751V213.552" stroke="#263238" stroke-linecap="round" stroke-linejoin="round"/>
<path d="M695.783 208.751V213.552" stroke="#263238" stroke-linecap="round" stroke-linejoin="round"/>
<path d="M684.319 208.751V213.552" stroke="#263238" stroke-linecap="round" stroke-linejoin="round"/>
<path d="M672.842 208.751V213.552" stroke="#263238" stroke-linecap="round" stroke-linejoin="round"/>
<path d="M661.366 208.751V213.552" stroke="#263238" stroke-linecap="round" stroke-linejoin="round"/>
<path d="M649.901 208.751V213.552" stroke="#263238" stroke-linecap="round" stroke-linejoin="round"/>
<path d="M638.425 208.751V213.552" stroke="#263238" stroke-linecap="round" stroke-linejoin="round"/>
<path d="M626.948 208.751V213.552" stroke="#263238" stroke-linecap="round" stroke-linejoin="round"/>
<path d="M615.484 208.751V213.552" stroke="#263238" stroke-linecap="round" stroke-linejoin="round"/>
<path d="M604.007 208.751V213.552" stroke="#263238" stroke-linecap="round" stroke-linejoin="round"/>
<path d="M592.531 208.751V213.552" stroke="#263238" stroke-linecap="round" stroke-linejoin="round"/>
<path d="M581.066 208.751V213.552" stroke="#263238" stroke-linecap="round" stroke-linejoin="round"/>
<path d="M569.59 208.751V213.552" stroke="#263238" stroke-linecap="round" stroke-linejoin="round"/>
<path d="M558.113 208.751V213.552" stroke="#263238" stroke-linecap="round" stroke-linejoin="round"/>
<path d="M645.773 104.091H613.595V109.364H645.773V104.091Z" fill="#263238"/>
<path d="M714.027 250.216H546.564C537.872 250.216 530.826 257.254 530.826 265.936V381.321C530.826 390.003 537.872 397.041 546.564 397.041H714.027C722.719 397.041 729.765 390.003 729.765 381.321V265.936C729.765 257.254 722.719 250.216 714.027 250.216Z" fill="#263238" stroke="#263238" stroke-linecap="round" stroke-linejoin="round"/>
<path d="M710.177 259.188H550.414C544.222 259.188 539.203 264.202 539.203 270.386V376.883C539.203 383.068 544.222 388.081 550.414 388.081H710.177C716.368 388.081 721.387 383.068 721.387 376.883V270.386C721.387 264.202 716.368 259.188 710.177 259.188Z" fill="white" stroke="#263238" stroke-linecap="round" stroke-linejoin="round"/>
<path d="M599.697 375.614C587.522 375.605 575.785 371.071 566.77 362.896C557.755 354.721 552.107 343.489 550.925 331.385C549.742 319.28 553.11 307.169 560.373 297.408C567.636 287.646 578.274 280.932 590.218 278.572L592.555 290.447C587.578 291.407 582.852 293.379 578.671 296.242C574.49 299.104 570.944 302.796 568.253 307.086C565.562 311.377 563.784 316.175 563.03 321.182C562.275 326.189 562.561 331.297 563.868 336.188C565.175 341.08 567.477 345.651 570.629 349.616C573.781 353.581 577.717 356.855 582.19 359.235C586.664 361.616 591.581 363.051 596.633 363.451C601.686 363.851 606.768 363.208 611.561 361.562L615.447 373.014C610.376 374.738 605.055 375.616 599.697 375.614Z" fill="#263238"/>
<path d="M634.442 314.088C631.424 305.806 625.544 298.874 617.862 294.54C610.18 290.205 601.201 288.754 592.543 290.447L590.218 278.572C593.342 277.968 596.516 277.664 599.697 277.665C609.773 277.682 619.601 280.79 627.851 286.569C636.1 292.348 642.373 300.519 645.821 309.976L634.442 314.088Z" fill="#F6E8EA"/>
<path d="M615.447 373.026L611.561 361.562C616.212 359.983 620.5 357.494 624.177 354.24C627.854 350.987 630.844 347.034 632.974 342.613C635.105 338.192 636.331 333.392 636.583 328.492C636.835 323.592 636.107 318.691 634.442 314.076L645.821 309.964C648.038 316.092 649.008 322.6 648.677 329.106C648.345 335.613 646.717 341.989 643.889 347.86C641.06 353.731 637.088 358.979 632.205 363.299C627.321 367.618 621.624 370.921 615.447 373.014V373.026Z" fill="#A8A8A8"/>
<path d="M678.786 288.887H665.179V302.479H678.786V288.887Z" fill="#263238"/>
<path d="M678.786 322.153H665.179V335.745H678.786V322.153Z" fill="#F6E8EA"/>
<path d="M678.786 355.432H665.179V369.023H678.786V355.432Z" fill="#A8A8A8"/>
<path d="M685.953 296.046H708.87" stroke="#263238" stroke-linecap="round" stroke-linejoin="round"/>
<path d="M685.953 328.236H708.87" stroke="#263238" stroke-linecap="round" stroke-linejoin="round"/>
<path d="M587.107 327.522H610.024" stroke="#263238" stroke-linecap="round" stroke-linejoin="round"/>
<path d="M685.953 361.865H708.87" stroke="#263238" stroke-linecap="round" stroke-linejoin="round"/>
</svg>
